<svg width="91" height="36" viewBox="0 0 91 36" fill="none" xmlns="http://www.w3.org/2000/svg">
<path d="M52.069 15.6906V1.22063H60.632V2.34863H53.303V7.88063H60.508V9.00663H53.303V14.5566H60.678V15.6846L52.069 15.6906ZM13.632 8.92963V1.27463H18.08V1.87163H14.285V4.66863H18.013V5.26763H14.285V8.33063H18.102V8.92763L13.632 8.92963ZM71.188 10.1996H65.271L63.117 15.6976H61.902L67.55 1.22063H68.824L74.702 15.6906H73.426L71.187 10.2006L71.188 10.1996ZM65.708 9.09463H70.728L68.176 2.79063L65.708 9.09463ZM77.196 3.33163V15.6846H75.963V1.22063H77.242L85.692 13.6626V1.22063H86.928V15.6906H85.648L77.196 3.33163ZM14.119 35.7186V21.2486H17.026V33.0006H23.268V35.7186H14.119ZM25.028 35.7186V21.2486H34.236V23.9656H27.934V26.9746H34.133V29.6466H27.934V32.9936H34.301V35.7106L25.028 35.7186ZM44.86 31.7466H39.904L38.482 35.7186H35.618L40.847 21.2486H43.898L49.378 35.7186H46.305L44.861 31.7466H44.86ZM40.804 29.2776H43.962L42.371 24.9276L40.804 29.2776ZM53.518 26.1826V35.7186H50.695V21.2486H53.706L59.916 30.9516V21.2486H62.741V35.7186H59.855L53.518 26.1826ZM29.509 15.7806C28.047 15.7806 26.6178 15.3471 25.4021 14.5348C24.1865 13.7225 23.2391 12.568 22.6796 11.2172C22.1202 9.86643 21.9738 8.38009 22.2591 6.94616C22.5444 5.51222 23.2486 4.19509 24.2824 3.16134C25.3163 2.12759 26.6336 1.42365 28.0675 1.13854C29.5015 0.853435 30.9878 0.999964 32.3385 1.5596C33.6892 2.11924 34.8436 3.06684 35.6557 4.28258C36.4679 5.49832 36.9012 6.92759 36.901 8.38963C36.8978 10.349 36.118 12.2273 34.7324 13.6127C33.3468 14.9981 31.4684 15.7777 29.509 15.7806ZM29.509 2.25663C28.2962 2.25624 27.1105 2.61551 26.1018 3.28902C25.0932 3.96253 24.3069 4.92002 23.8425 6.0404C23.378 7.16078 23.2562 8.39373 23.4925 9.58333C23.7288 10.7729 24.3126 11.8657 25.17 12.7235C26.0274 13.5814 27.1199 14.1657 28.3094 14.4025C29.4989 14.6394 30.7319 14.5182 31.8525 14.0543C32.9731 13.5904 33.931 12.8046 34.605 11.7963C35.279 10.788 35.6388 9.60247 35.639 8.38963C35.6372 6.76415 34.9908 5.20572 33.8417 4.05605C32.6926 2.90638 31.1345 2.25928 29.509 2.25663ZM8.21102 33.0996C7.38985 33.1015 6.58277 32.8863 5.87151 32.4759C5.16026 32.0655 4.57008 31.4744 4.16075 30.7625C3.75142 30.0506 3.53747 29.2432 3.54057 28.4221C3.54367 27.6009 3.7637 26.7951 4.1784 26.0863C4.59309 25.3776 5.18772 24.791 5.90205 24.3859C6.61639 23.9809 7.42507 23.7718 8.24621 23.7799C9.06734 23.7879 9.87177 24.0128 10.578 24.4318C11.2843 24.8507 11.8673 25.4489 12.268 26.1656V22.2716C11.1539 21.5355 9.86116 21.115 8.52718 21.0547C7.1932 20.9944 5.86779 21.2965 4.69176 21.9291C3.51574 22.5616 2.53302 23.5009 1.84801 24.6471C1.16299 25.7934 0.80127 27.1038 0.80127 28.4391C0.80127 29.7745 1.16299 31.0849 1.84801 32.2311C2.53302 33.3774 3.51574 34.3167 4.69176 34.9492C5.86779 35.5817 7.1932 35.8839 8.52718 35.8236C9.86116 35.7633 11.1539 35.3427 12.268 34.6066V30.7166C11.8643 31.4383 11.2756 32.0394 10.5626 32.4582C9.8496 32.877 9.03793 33.0984 8.21102 33.0996ZM46.094 14.5196C45.0935 14.5227 44.1073 14.281 43.2216 13.8154C42.336 13.3498 41.5777 12.6746 41.013 11.8486C40.4482 11.0226 40.0942 10.071 39.9818 9.07678C39.8693 8.08254 40.0019 7.07589 40.3679 6.14465C40.7339 5.21341 41.3222 4.38588 42.0815 3.73426C42.8408 3.08265 43.748 2.62673 44.724 2.40631C45.7 2.18588 46.7151 2.20764 47.6808 2.46968C48.6465 2.73172 49.5333 3.22608 50.264 3.90963V2.29263C49.1538 1.53046 47.8565 1.08602 46.5121 1.00728C45.1678 0.928539 43.8274 1.21849 42.6358 1.84584C41.4442 2.47318 40.4466 3.41409 39.7506 4.56698C39.0547 5.71988 38.6868 7.04097 38.6868 8.38763C38.6868 9.7343 39.0547 11.0554 39.7506 12.2083C40.4466 13.3612 41.4442 14.3021 42.6358 14.9294C43.8274 15.5568 45.1678 15.8467 46.5121 15.768C47.8565 15.6892 49.1538 15.2448 50.264 14.4826V12.8646C49.1355 13.927 47.644 14.5196 46.094 14.5196ZM64.599 30.0306V21.2046H67.505V30.0296C67.505 31.9316 68.403 33.2286 70.39 33.2286C72.295 33.2286 73.237 31.8896 73.237 30.0066V21.2056H76.141V30.0156C76.141 33.4466 74.135 35.9546 70.35 35.9546C66.419 35.9466 64.6 33.5846 64.6 30.0306H64.599ZM82.46 29.6116H80.87V35.6776H77.985V21.2056H82.46C85.345 21.2056 86.885 22.6806 86.885 25.3676C86.892 27.9876 85.135 29.6116 82.46 29.6116ZM80.87 23.7116V27.1016H82.227C83.297 27.1016 83.887 26.4126 83.887 25.3876C83.887 24.3626 83.301 23.7156 82.227 23.7156L80.87 23.7116ZM4.08903 1.87163V8.92963H3.43603V1.87163H1.71803V1.27463H5.83702V1.87163H4.08903ZM12.463 8.92963H11.811V5.24163H7.58302V8.92963H6.93003V1.27463H7.58302V4.62663H11.811V1.27463H12.463V8.92963ZM88.135 24.4726C87.9389 24.3591 87.767 24.208 87.6294 24.028C87.4918 23.8479 87.391 23.6425 87.333 23.4234C87.2749 23.2043 87.2607 22.9759 87.2911 22.7514C87.3214 22.5268 87.3959 22.3104 87.51 22.1146C87.6615 21.8539 87.8787 21.6376 88.14 21.4872C88.4013 21.3368 88.6975 21.2576 88.999 21.2576C89.3005 21.2576 89.5967 21.3368 89.858 21.4872C90.1193 21.6376 90.3366 21.8539 90.488 22.1146C90.6391 22.3784 90.7185 22.6771 90.7185 22.9811C90.7185 23.2851 90.6391 23.5838 90.488 23.8476C90.2588 24.2424 89.8821 24.5301 89.4409 24.6473C88.9997 24.7645 88.53 24.7016 88.135 24.4726ZM88.264 21.7076C88.042 21.8336 87.859 22.0176 87.733 22.2406C87.603 22.4636 87.535 22.7186 87.537 22.9776C87.5353 23.2345 87.6016 23.4873 87.7291 23.7104C87.8566 23.9334 88.0408 24.1187 88.263 24.2476C88.487 24.3806 88.742 24.4496 89.001 24.4476C89.2579 24.4471 89.5102 24.3792 89.7326 24.2507C89.9551 24.1223 90.1401 23.9378 90.269 23.7156C90.4029 23.493 90.4721 23.2374 90.469 22.9776C90.4708 22.7183 90.4016 22.4635 90.269 22.2406C90.1425 22.0193 89.9596 21.8354 89.739 21.7076C89.5158 21.5755 89.2604 21.5077 89.001 21.5116C88.741 21.5126 88.486 21.5846 88.264 21.7186V21.7076ZM88.957 23.1826H88.617V23.9626H88.341V22.0046H89.145C89.3119 22.0008 89.474 22.06 89.599 22.1706C89.6999 22.2686 89.764 22.3982 89.7808 22.5378C89.7975 22.6775 89.7658 22.8186 89.691 22.9376C89.636 23.0157 89.5625 23.079 89.477 23.1216C89.4172 23.1557 89.3506 23.1762 89.282 23.1816L89.809 23.9696H89.468L88.958 23.1826H88.957ZM88.617 22.2346V22.9316H89.145C89.2381 22.9318 89.3277 22.8968 89.396 22.8336C89.43 22.8031 89.457 22.7656 89.4751 22.7236C89.4932 22.6817 89.5021 22.6363 89.501 22.5906C89.503 22.5426 89.4946 22.4947 89.4765 22.4502C89.4584 22.4057 89.431 22.3656 89.396 22.3326C89.3289 22.2682 89.239 22.233 89.146 22.2346H88.616H88.617Z" fill="white"/>
</svg>
