<svg class="btn-icon" width="21" height="21" fill="none">
    <path fill="#fff" stroke="#fff" d="M19.3 6.8a9.5 9.5 0 0 0-12.5-5 9.5 9.5 0 0 0-5 12.4 9.5 9.5 0 0 0 12.4 5 9.5 9.5 0 0 0 5-12.4Zm-.5.2a9 9 0 0 1 .7 3.8l-.2-.4-.5-.4c-.3-.4-.6-.5-.8-.4-.7.2-1.2 1.6-1.6 3.2l-.2.6-.4.1c-.4.1-.5.2-.6.4l-2 3c-.2.2-1.1.5-1.6.6v-3.1l-.5-1.1.4-1 .7-.5.2-.2s0-.2-.2-.2l-1-.6c-.3-.1-.6 0-.7.2l-.6.8-.2.1v-.2c0-.3 0-.6-.2-.8l-1.1-.6v-.1c0-.8.3-1.5.4-1.6.4-.3 1.3-.2 1.8-.1h.2l.4-.1.1-.3V5.6l.8-.3.3.2c.1.2.4.1.6 0l.7-.3 1-.4a65.8 65.8 0 0 1 1.6-.3l.2-.7A9 9 0 0 1 18.8 7ZM7 2.2a9 9 0 0 1 7 0l-.2.2-.8.4c-.3.1-.5.3-.7.2a1 1 0 0 1-.7-.3l-.8-.4c-.5 0-1 .2-1.3.4l-.4.2c-.5.2-1.3.5-2 .5-.6 0-1-.2-1.2-.6L7 2.2Zm-5.5 8.3A9 9 0 0 1 2.8 6l.5 1.3c.2.3.3.6.3 1s-.2.7-.3 1c-.2.3-.3.5-.3.8-.4 1-.1 2.2.2 3.3l.2.9c.1.3.2.6 0 .8 0 .2-.2.2-.3.3a9 9 0 0 1-1.6-4.9ZM18.8 14a9 9 0 0 1-15.5 1.9l.5-.4c.3-.4.3-1 .2-1.3l-.3-1c-.3-1-.6-2-.2-3l.2-.6c.2-.4.4-.8.4-1.3S4 7.4 3.8 7l-.7-1.6a9 9 0 0 1 2.3-2.3c.4.5 1 .8 1.7.8A6 6 0 0 0 9.7 3l1-.3c.2 0 .4.2.6.4l1 .4a37.4 37.4 0 0 1 1.8-.7l.5-.4 1.5 1-.3.7h-1.3l-1.8.9c-.2-.2-.5-.5-.8-.3l-1 .4-.1.7a31.6 31.6 0 0 0 0 2h-.2c-.6 0-1.6-.2-2.2.3l-.4 1-.1.8c-.2.3 0 .6.2.7l1.1.6v.6c0 .4.3.5.4.5.4 0 .7-.2.8-.3l.5-.8.7.3-.4.3-.4.7-.2.8.4 1.2v1l.1 2.3.2.2h.1l1.2-.3a17.2 17.2 0 0 0 1-.5l2-3.2.8-.2c.2 0 .3-.2.3-.4l.2-.5a7 7 0 0 1 .6-1.9c.3-.8.5-1 .6-1l.7.6.5 1a9 9 0 0 1-.5 2.3Z"/>
</svg>
